<?xml version="1.0" encoding="UTF-8"?>
<svg id="_レイヤー_2" data-name="レイヤー 2" xmlns="http://www.w3.org/2000/svg" viewBox="0 0 448.25 448.15">
  <defs>
    <style>
      .cls-1 {
        fill: #fff;
        stroke-width: 0px;
      }
    </style>
  </defs>
  <g id="_レイヤー_1-2" data-name="レイヤー 1">
    <path class="cls-1" d="M224.18,109.18c-63.6,0-114.9,51.3-114.9,114.9s51.3,114.9,114.9,114.9,114.9-51.3,114.9-114.9-51.3-114.9-114.9-114.9ZM224.18,298.78c-41.1,0-74.7-33.5-74.7-74.7s33.5-74.7,74.7-74.7,74.7,33.5,74.7,74.7-33.6,74.7-74.7,74.7h0ZM370.57,104.48c0,14.9-12,26.8-26.8,26.8s-26.8-12-26.8-26.8,12-26.8,26.8-26.8,26.8,12,26.8,26.8ZM446.68,131.68c-1.7-35.9-9.9-67.7-36.2-93.9C384.27,11.58,352.47,3.37,316.57,1.58c-37-2.1-147.9-2.1-184.9,0-35.8,1.7-67.6,9.9-93.9,36.1S3.37,95.68,1.57,131.57c-2.1,37-2.1,147.9,0,184.9,1.7,35.9,9.9,67.7,36.2,93.9,26.3,26.2,58,34.4,93.9,36.2,37,2.1,147.9,2.1,184.9,0,35.9-1.7,67.7-9.9,93.9-36.2,26.2-26.2,34.4-58,36.2-93.9,2.1-37,2.1-147.8,0-184.8h0ZM398.87,356.18c-7.8,19.6-22.9,34.7-42.6,42.6-29.5,11.7-99.5,9-132.1,9s-102.7,2.6-132.1-9c-19.6-7.8-34.7-22.9-42.6-42.6-11.7-29.5-9-99.5-9-132.1s-2.6-102.7,9-132.1c7.8-19.6,22.9-34.7,42.6-42.6,29.5-11.7,99.5-9,132.1-9s102.7-2.6,132.1,9c19.6,7.8,34.7,22.9,42.6,42.6,11.7,29.5,9,99.5,9,132.1s2.7,102.7-9,132.1Z"/>
  </g>
</svg>