<svg id="Glyph" xmlns="http://www.w3.org/2000/svg" viewBox="0 0 64 64"><title>1</title><path d="M59.831,47.11311a5.62078,5.62078,0,0,0-2.56788-3.46452l-6.08781-3.65267a5.69754,5.69754,0,0,0-8.379,3.44249,3.83566,3.83566,0,0,1-5.58987,2.04748,54.941,54.941,0,0,1-10.5042-8.19075A54.74057,54.74057,0,0,1,18.52249,26.813a3.89715,3.89715,0,0,1,2.25807-5.68931,5.66029,5.66029,0,0,0,3.20973-8.30162L20.3488,6.73431a5.66488,5.66488,0,0,0-7.737-1.9259A17.73569,17.73569,0,0,0,6.00369,28.1966,70.14723,70.14723,0,0,0,35.75647,57.97152,17.72852,17.72852,0,0,0,59.189,51.38562,5.60217,5.60217,0,0,0,59.831,47.11311Z"/><path d="M33.05535,10.01547c11.20935-.11176,20.98916,9.719,20.811,20.93023a1.1071,1.1071,0,0,0,2.21391-.00994c.19708-12.38929-10.61635-23.2576-23.00347-23.13385A1.10694,1.10694,0,0,0,33.05535,10.01547Z"/><path d="M32.84619,16.65239A14.43229,14.43229,0,0,1,47.2284,31.03483a1.10706,1.10706,0,0,0,2.21386-.00016,16.65625,16.65625,0,0,0-16.5962-16.59589A1.10692,1.10692,0,0,0,32.84619,16.65239Z"/><path d="M32.84619,23.28661a7.74641,7.74641,0,0,1,7.74811,7.74811,1.107,1.107,0,0,0,2.21375-.00005,10.00808,10.00808,0,0,0-9.96194-9.96173A1.107,1.107,0,0,0,32.84619,23.28661Z"/></svg>