<svg version="1.1" xmlns="http://www.w3.org/2000/svg" xmlns:xlink="http://www.w3.org/1999/xlink" width="64px" height="64px" viewBox="0,0,256,256"><g fill="#ed6d00" fill-rule="nonzero" stroke="none" stroke-width="1" stroke-linecap="butt" stroke-linejoin="miter" stroke-miterlimit="10" stroke-dasharray="" stroke-dashoffset="0" font-family="none" font-weight="none" font-size="none" text-anchor="none" style="mix-blend-mode: normal"><g transform="translate(-0.00365,-0.02094) scale(4,4)"><path d="M59.831,47.11311c-0.36128,-1.45032 -1.28533,-2.69703 -2.56788,-3.46452l-6.08781,-3.65267c-1.53365,-0.89677 -3.39784,-1.02682 -5.04115,-0.35167c-1.64331,0.67515 -2.87763,2.07821 -3.33785,3.79416c-0.3757,1.09199 -1.2234,1.95659 -2.30776,2.35377c-1.08436,0.39718 -2.28996,0.28467 -3.28211,-0.30629c-3.82063,-2.29413 -7.34795,-5.04459 -10.5042,-8.19075c-3.14237,-3.14871 -5.88921,-6.66871 -8.17975,-10.48214c-0.59869,-1.03269 -0.69109,-2.28279 -0.25074,-3.39228c0.44035,-1.10949 1.36489,-1.95598 2.50881,-2.29703c1.6605,-0.50853 2.99565,-1.75117 3.62192,-3.37094c0.62627,-1.61977 0.47432,-3.43738 -0.41219,-4.93068l-3.64149,-6.08776c-1.61421,-2.65543 -5.06631,-3.51473 -7.737,-1.9259c-8.03758,4.82453 -10.93258,15.07088 -6.60811,23.38819c6.63576,12.73669 17.02103,23.12969 29.75278,29.77492c8.32201,4.36053 18.60071,1.47162 23.43253,-6.5859c0.77665,-1.28105 1.00787,-2.81979 0.642,-4.27251z"></path><path d="M33.05535,10.01547c11.20935,-0.11176 20.98916,9.719 20.811,20.93023c0.01212,0.6046 0.50713,1.08762 1.11185,1.0849c0.60472,-0.00272 1.09537,-0.49016 1.10206,-1.09484c0.19708,-12.38929 -10.61635,-23.2576 -23.00347,-23.13385c-0.60531,0.0026 -1.09628,0.49092 -1.10214,1.09621c-0.00586,0.60529 0.47556,1.10303 1.0807,1.11735z"></path><path d="M32.84619,16.65239c7.93176,0.02748 14.35486,6.45068 14.38221,14.38244c0.00931,0.60473 0.50221,1.09006 1.10701,1.09001c0.6048,-0.00004 1.09763,-0.48545 1.10685,-1.09017c-0.03311,-9.15203 -7.44417,-16.56295 -16.5962,-16.59589c-0.60505,0.00876 -1.09094,0.50176 -1.0909,1.10687c0.00004,0.60511 0.48598,1.09805 1.09103,1.10674z"></path><path d="M32.84619,23.28661c2.05506,-0.00045 4.02609,0.81572 5.47924,2.26887c1.45315,1.45315 2.26932,3.42417 2.26887,5.47924c0.0091,0.60482 0.50201,1.09035 1.1069,1.09034c0.60489,-0.00001 1.09777,-0.48557 1.10685,-1.09039c-0.02537,-5.49125 -4.47069,-9.93647 -9.96194,-9.96173c-0.60384,0.01045 -1.08787,0.50295 -1.08785,1.10687c0.00002,0.60393 0.48409,1.09639 1.08793,1.1068z"></path></g></g></svg>